%TF.GenerationSoftware,KiCad,Pcbnew,7.0.2*%
%TF.CreationDate,2023-10-13T18:39:38+02:00*%
%TF.ProjectId,3D Scanner with IR sensor Central Unit,33442053-6361-46e6-9e65-722077697468,1.0*%
%TF.SameCoordinates,Original*%
%TF.FileFunction,Soldermask,Bot*%
%TF.FilePolarity,Negative*%
%FSLAX46Y46*%
G04 Gerber Fmt 4.6, Leading zero omitted, Abs format (unit mm)*
G04 Created by KiCad (PCBNEW 7.0.2) date 2023-10-13 18:39:38*
%MOMM*%
%LPD*%
G01*
G04 APERTURE LIST*
G04 Aperture macros list*
%AMRoundRect*
0 Rectangle with rounded corners*
0 $1 Rounding radius*
0 $2 $3 $4 $5 $6 $7 $8 $9 X,Y pos of 4 corners*
0 Add a 4 corners polygon primitive as box body*
4,1,4,$2,$3,$4,$5,$6,$7,$8,$9,$2,$3,0*
0 Add four circle primitives for the rounded corners*
1,1,$1+$1,$2,$3*
1,1,$1+$1,$4,$5*
1,1,$1+$1,$6,$7*
1,1,$1+$1,$8,$9*
0 Add four rect primitives between the rounded corners*
20,1,$1+$1,$2,$3,$4,$5,0*
20,1,$1+$1,$4,$5,$6,$7,0*
20,1,$1+$1,$6,$7,$8,$9,0*
20,1,$1+$1,$8,$9,$2,$3,0*%
G04 Aperture macros list end*
%ADD10C,1.440000*%
%ADD11C,1.500000*%
%ADD12RoundRect,0.250000X-0.550000X0.550000X-0.550000X-0.550000X0.550000X-0.550000X0.550000X0.550000X0*%
%ADD13C,1.600000*%
%ADD14C,0.800000*%
%ADD15C,6.400000*%
%ADD16R,2.000000X2.000000*%
%ADD17C,2.000000*%
%ADD18RoundRect,0.250000X-0.550000X-0.550000X0.550000X-0.550000X0.550000X0.550000X-0.550000X0.550000X0*%
%ADD19RoundRect,0.250001X0.799999X-0.799999X0.799999X0.799999X-0.799999X0.799999X-0.799999X-0.799999X0*%
%ADD20C,2.100000*%
%ADD21R,2.000000X4.600000*%
%ADD22O,2.000000X4.200000*%
%ADD23O,4.200000X2.000000*%
%ADD24R,1.600000X1.600000*%
%ADD25C,4.000000*%
%ADD26RoundRect,0.200000X-0.200000X-0.450000X0.200000X-0.450000X0.200000X0.450000X-0.200000X0.450000X0*%
%ADD27O,0.800000X1.300000*%
%ADD28RoundRect,0.225000X0.250000X-0.225000X0.250000X0.225000X-0.250000X0.225000X-0.250000X-0.225000X0*%
%ADD29RoundRect,0.140000X-0.170000X0.140000X-0.170000X-0.140000X0.170000X-0.140000X0.170000X0.140000X0*%
%ADD30RoundRect,0.140000X0.140000X0.170000X-0.140000X0.170000X-0.140000X-0.170000X0.140000X-0.170000X0*%
%ADD31RoundRect,0.140000X0.170000X-0.140000X0.170000X0.140000X-0.170000X0.140000X-0.170000X-0.140000X0*%
%ADD32RoundRect,0.140000X-0.140000X-0.170000X0.140000X-0.170000X0.140000X0.170000X-0.140000X0.170000X0*%
%ADD33RoundRect,0.140000X0.219203X0.021213X0.021213X0.219203X-0.219203X-0.021213X-0.021213X-0.219203X0*%
%ADD34RoundRect,0.140000X-0.021213X0.219203X-0.219203X0.021213X0.021213X-0.219203X0.219203X-0.021213X0*%
%ADD35RoundRect,0.140000X0.021213X-0.219203X0.219203X-0.021213X-0.021213X0.219203X-0.219203X0.021213X0*%
%ADD36RoundRect,0.140000X-0.219203X-0.021213X-0.021213X-0.219203X0.219203X0.021213X0.021213X0.219203X0*%
G04 APERTURE END LIST*
D10*
%TO.C,RV2*%
X308120000Y-222840000D03*
X313200000Y-220300000D03*
X308120000Y-217760000D03*
%TD*%
D11*
%TO.C,J6*%
X207375000Y-193400000D03*
X207375000Y-197000000D03*
D12*
X213375000Y-193400000D03*
D13*
X213375000Y-197000000D03*
%TD*%
D11*
%TO.C,J10*%
X331400000Y-282000000D03*
X331400000Y-257800000D03*
%TD*%
D14*
%TO.C,H3*%
X339800000Y-192000000D03*
X340502944Y-190302944D03*
X340502944Y-193697056D03*
X342200000Y-189600000D03*
D15*
X342200000Y-192000000D03*
D14*
X342200000Y-194400000D03*
X343897056Y-190302944D03*
X343897056Y-193697056D03*
X344600000Y-192000000D03*
%TD*%
D16*
%TO.C,BZ1*%
X239900000Y-195200000D03*
D17*
X247500000Y-195200000D03*
%TD*%
D11*
%TO.C,J8*%
X297800000Y-191225000D03*
X301400000Y-191225000D03*
X305000000Y-191225000D03*
X308600000Y-191225000D03*
D18*
X297800000Y-185225000D03*
D13*
X301400000Y-185225000D03*
X305000000Y-185225000D03*
X308600000Y-185225000D03*
%TD*%
D11*
%TO.C,J9*%
X318400000Y-191625000D03*
X322000000Y-191625000D03*
X325600000Y-191625000D03*
X329200000Y-191625000D03*
D18*
X318400000Y-185625000D03*
D13*
X322000000Y-185625000D03*
X325600000Y-185625000D03*
X329200000Y-185625000D03*
%TD*%
D19*
%TO.C,J23*%
X87500000Y-239700000D03*
D20*
X87500000Y-235100000D03*
X87500000Y-230500000D03*
%TD*%
D21*
%TO.C,J1*%
X78950000Y-235150000D03*
D22*
X72650000Y-235150000D03*
D23*
X76050000Y-239950000D03*
%TD*%
D24*
%TO.C,J2*%
X340312500Y-223650000D03*
D13*
X340312500Y-226150000D03*
X342312500Y-226150000D03*
X342312500Y-223650000D03*
D25*
X345172500Y-218900000D03*
X345172500Y-230900000D03*
%TD*%
D14*
%TO.C,H1*%
X77600000Y-192000000D03*
X78302944Y-190302944D03*
X78302944Y-193697056D03*
X80000000Y-189600000D03*
D15*
X80000000Y-192000000D03*
D14*
X80000000Y-194400000D03*
X81697056Y-190302944D03*
X81697056Y-193697056D03*
X82400000Y-192000000D03*
%TD*%
%TO.C,H2*%
X77600000Y-276000000D03*
X78302944Y-274302944D03*
X78302944Y-277697056D03*
X80000000Y-273600000D03*
D15*
X80000000Y-276000000D03*
D14*
X80000000Y-278400000D03*
X81697056Y-274302944D03*
X81697056Y-277697056D03*
X82400000Y-276000000D03*
%TD*%
D10*
%TO.C,RV1*%
X342750000Y-201430000D03*
X345290000Y-206510000D03*
X347830000Y-201430000D03*
%TD*%
D26*
%TO.C,J4*%
X260550000Y-281600000D03*
D27*
X261800000Y-281600000D03*
X263050000Y-281600000D03*
%TD*%
D14*
%TO.C,H4*%
X216600000Y-260000000D03*
X217302944Y-258302944D03*
X217302944Y-261697056D03*
X219000000Y-257600000D03*
D15*
X219000000Y-260000000D03*
D14*
X219000000Y-262400000D03*
X220697056Y-258302944D03*
X220697056Y-261697056D03*
X221400000Y-260000000D03*
%TD*%
D24*
%TO.C,J3*%
X340300000Y-244300000D03*
D13*
X340300000Y-246800000D03*
X342300000Y-246800000D03*
X342300000Y-244300000D03*
D25*
X345160000Y-239550000D03*
X345160000Y-251550000D03*
%TD*%
D28*
%TO.C,C73*%
X175600000Y-231275000D03*
X175600000Y-229725000D03*
%TD*%
D29*
%TO.C,C104*%
X175000000Y-236420000D03*
X175000000Y-237380000D03*
%TD*%
D30*
%TO.C,C76*%
X182080000Y-231500000D03*
X181120000Y-231500000D03*
%TD*%
D31*
%TO.C,C79*%
X178600000Y-233780000D03*
X178600000Y-232820000D03*
%TD*%
D32*
%TO.C,C77*%
X178920000Y-236700000D03*
X179880000Y-236700000D03*
%TD*%
%TO.C,C92*%
X186320000Y-236500000D03*
X187280000Y-236500000D03*
%TD*%
D29*
%TO.C,C78*%
X181800000Y-235500000D03*
X181800000Y-236460000D03*
%TD*%
D32*
%TO.C,C81*%
X181000000Y-234400000D03*
X181960000Y-234400000D03*
%TD*%
D31*
%TO.C,C83*%
X178200000Y-235680000D03*
X178200000Y-234720000D03*
%TD*%
D29*
%TO.C,C85*%
X177000000Y-237120000D03*
X177000000Y-238080000D03*
%TD*%
D30*
%TO.C,C87*%
X181080000Y-233400000D03*
X180120000Y-233400000D03*
%TD*%
D33*
%TO.C,C118*%
X186039411Y-234139411D03*
X185360589Y-233460589D03*
%TD*%
D34*
%TO.C,C91*%
X178500000Y-229500000D03*
X177821178Y-230178822D03*
%TD*%
D30*
%TO.C,C89*%
X183980000Y-236100000D03*
X183020000Y-236100000D03*
%TD*%
D32*
%TO.C,C82*%
X181500000Y-228400000D03*
X182460000Y-228400000D03*
%TD*%
D30*
%TO.C,C90*%
X184800000Y-228400000D03*
X183840000Y-228400000D03*
%TD*%
D29*
%TO.C,C88*%
X182900000Y-232520000D03*
X182900000Y-233480000D03*
%TD*%
D35*
%TO.C,C84*%
X180160589Y-230339411D03*
X180839411Y-229660589D03*
%TD*%
D36*
%TO.C,C86*%
X184060589Y-233860589D03*
X184739411Y-234539411D03*
%TD*%
D32*
%TO.C,C119*%
X183420000Y-230400000D03*
X184380000Y-230400000D03*
%TD*%
D34*
%TO.C,C74*%
X178639411Y-230760589D03*
X177960589Y-231439411D03*
%TD*%
D29*
%TO.C,C72*%
X180100000Y-231420000D03*
X180100000Y-232380000D03*
%TD*%
D30*
%TO.C,C80*%
X185180000Y-232300000D03*
X184220000Y-232300000D03*
%TD*%
D29*
%TO.C,C93*%
X186700000Y-231220000D03*
X186700000Y-232180000D03*
%TD*%
M02*
