%TF.GenerationSoftware,KiCad,Pcbnew,7.0.2*%
%TF.CreationDate,2023-10-13T18:39:37+02:00*%
%TF.ProjectId,3D Scanner with IR sensor Central Unit,33442053-6361-46e6-9e65-722077697468,1.0*%
%TF.SameCoordinates,Original*%
%TF.FileFunction,Legend,Bot*%
%TF.FilePolarity,Positive*%
%FSLAX46Y46*%
G04 Gerber Fmt 4.6, Leading zero omitted, Abs format (unit mm)*
G04 Created by KiCad (PCBNEW 7.0.2) date 2023-10-13 18:39:37*
%MOMM*%
%LPD*%
G01*
G04 APERTURE LIST*
%ADD10C,0.120000*%
G04 APERTURE END LIST*
D10*
%TO.C,C73*%
X175090000Y-230640580D02*
X175090000Y-230359420D01*
X176110000Y-230640580D02*
X176110000Y-230359420D01*
%TO.C,C104*%
X175360000Y-236792164D02*
X175360000Y-237007836D01*
X174640000Y-236792164D02*
X174640000Y-237007836D01*
%TO.C,C76*%
X181707836Y-231860000D02*
X181492164Y-231860000D01*
X181707836Y-231140000D02*
X181492164Y-231140000D01*
%TO.C,C79*%
X178240000Y-233407836D02*
X178240000Y-233192164D01*
X178960000Y-233407836D02*
X178960000Y-233192164D01*
%TO.C,C77*%
X179292164Y-236340000D02*
X179507836Y-236340000D01*
X179292164Y-237060000D02*
X179507836Y-237060000D01*
%TO.C,C92*%
X186692164Y-236140000D02*
X186907836Y-236140000D01*
X186692164Y-236860000D02*
X186907836Y-236860000D01*
%TO.C,C78*%
X182160000Y-235872164D02*
X182160000Y-236087836D01*
X181440000Y-235872164D02*
X181440000Y-236087836D01*
%TO.C,C81*%
X181372164Y-234040000D02*
X181587836Y-234040000D01*
X181372164Y-234760000D02*
X181587836Y-234760000D01*
%TO.C,C83*%
X177840000Y-235307836D02*
X177840000Y-235092164D01*
X178560000Y-235307836D02*
X178560000Y-235092164D01*
%TO.C,C85*%
X177360000Y-237492164D02*
X177360000Y-237707836D01*
X176640000Y-237492164D02*
X176640000Y-237707836D01*
%TO.C,C87*%
X180707836Y-233760000D02*
X180492164Y-233760000D01*
X180707836Y-233040000D02*
X180492164Y-233040000D01*
%TO.C,C118*%
X185521693Y-234130810D02*
X185369190Y-233978307D01*
X186030810Y-233621693D02*
X185878307Y-233469190D01*
%TO.C,C91*%
X178491399Y-230017718D02*
X178338896Y-230170221D01*
X177982282Y-229508601D02*
X177829779Y-229661104D01*
%TO.C,C89*%
X183607836Y-236460000D02*
X183392164Y-236460000D01*
X183607836Y-235740000D02*
X183392164Y-235740000D01*
%TO.C,C82*%
X181872164Y-228040000D02*
X182087836Y-228040000D01*
X181872164Y-228760000D02*
X182087836Y-228760000D01*
%TO.C,C90*%
X184427836Y-228760000D02*
X184212164Y-228760000D01*
X184427836Y-228040000D02*
X184212164Y-228040000D01*
%TO.C,C88*%
X183260000Y-232892164D02*
X183260000Y-233107836D01*
X182540000Y-232892164D02*
X182540000Y-233107836D01*
%TO.C,C84*%
X180169190Y-229821693D02*
X180321693Y-229669190D01*
X180678307Y-230330810D02*
X180830810Y-230178307D01*
%TO.C,C86*%
X184578307Y-233869190D02*
X184730810Y-234021693D01*
X184069190Y-234378307D02*
X184221693Y-234530810D01*
%TO.C,C119*%
X183792164Y-230040000D02*
X184007836Y-230040000D01*
X183792164Y-230760000D02*
X184007836Y-230760000D01*
%TO.C,C74*%
X178630810Y-231278307D02*
X178478307Y-231430810D01*
X178121693Y-230769190D02*
X177969190Y-230921693D01*
%TO.C,C72*%
X180460000Y-231792164D02*
X180460000Y-232007836D01*
X179740000Y-231792164D02*
X179740000Y-232007836D01*
%TO.C,C80*%
X184807836Y-232660000D02*
X184592164Y-232660000D01*
X184807836Y-231940000D02*
X184592164Y-231940000D01*
%TO.C,C93*%
X187060000Y-231592164D02*
X187060000Y-231807836D01*
X186340000Y-231592164D02*
X186340000Y-231807836D01*
%TD*%
M02*
