%TF.GenerationSoftware,KiCad,Pcbnew,7.0.2*%
%TF.CreationDate,2023-10-13T18:39:37+02:00*%
%TF.ProjectId,3D Scanner with IR sensor Central Unit,33442053-6361-46e6-9e65-722077697468,1.0*%
%TF.SameCoordinates,Original*%
%TF.FileFunction,Paste,Bot*%
%TF.FilePolarity,Positive*%
%FSLAX46Y46*%
G04 Gerber Fmt 4.6, Leading zero omitted, Abs format (unit mm)*
G04 Created by KiCad (PCBNEW 7.0.2) date 2023-10-13 18:39:37*
%MOMM*%
%LPD*%
G01*
G04 APERTURE LIST*
G04 Aperture macros list*
%AMRoundRect*
0 Rectangle with rounded corners*
0 $1 Rounding radius*
0 $2 $3 $4 $5 $6 $7 $8 $9 X,Y pos of 4 corners*
0 Add a 4 corners polygon primitive as box body*
4,1,4,$2,$3,$4,$5,$6,$7,$8,$9,$2,$3,0*
0 Add four circle primitives for the rounded corners*
1,1,$1+$1,$2,$3*
1,1,$1+$1,$4,$5*
1,1,$1+$1,$6,$7*
1,1,$1+$1,$8,$9*
0 Add four rect primitives between the rounded corners*
20,1,$1+$1,$2,$3,$4,$5,0*
20,1,$1+$1,$4,$5,$6,$7,0*
20,1,$1+$1,$6,$7,$8,$9,0*
20,1,$1+$1,$8,$9,$2,$3,0*%
G04 Aperture macros list end*
%ADD10RoundRect,0.225000X0.250000X-0.225000X0.250000X0.225000X-0.250000X0.225000X-0.250000X-0.225000X0*%
%ADD11RoundRect,0.140000X-0.170000X0.140000X-0.170000X-0.140000X0.170000X-0.140000X0.170000X0.140000X0*%
%ADD12RoundRect,0.140000X0.140000X0.170000X-0.140000X0.170000X-0.140000X-0.170000X0.140000X-0.170000X0*%
%ADD13RoundRect,0.140000X0.170000X-0.140000X0.170000X0.140000X-0.170000X0.140000X-0.170000X-0.140000X0*%
%ADD14RoundRect,0.140000X-0.140000X-0.170000X0.140000X-0.170000X0.140000X0.170000X-0.140000X0.170000X0*%
%ADD15RoundRect,0.140000X0.219203X0.021213X0.021213X0.219203X-0.219203X-0.021213X-0.021213X-0.219203X0*%
%ADD16RoundRect,0.140000X-0.021213X0.219203X-0.219203X0.021213X0.021213X-0.219203X0.219203X-0.021213X0*%
%ADD17RoundRect,0.140000X0.021213X-0.219203X0.219203X-0.021213X-0.021213X0.219203X-0.219203X0.021213X0*%
%ADD18RoundRect,0.140000X-0.219203X-0.021213X-0.021213X-0.219203X0.219203X0.021213X0.021213X0.219203X0*%
G04 APERTURE END LIST*
D10*
%TO.C,C73*%
X175600000Y-231275000D03*
X175600000Y-229725000D03*
%TD*%
D11*
%TO.C,C104*%
X175000000Y-236420000D03*
X175000000Y-237380000D03*
%TD*%
D12*
%TO.C,C76*%
X182080000Y-231500000D03*
X181120000Y-231500000D03*
%TD*%
D13*
%TO.C,C79*%
X178600000Y-233780000D03*
X178600000Y-232820000D03*
%TD*%
D14*
%TO.C,C77*%
X178920000Y-236700000D03*
X179880000Y-236700000D03*
%TD*%
%TO.C,C92*%
X186320000Y-236500000D03*
X187280000Y-236500000D03*
%TD*%
D11*
%TO.C,C78*%
X181800000Y-235500000D03*
X181800000Y-236460000D03*
%TD*%
D14*
%TO.C,C81*%
X181000000Y-234400000D03*
X181960000Y-234400000D03*
%TD*%
D13*
%TO.C,C83*%
X178200000Y-235680000D03*
X178200000Y-234720000D03*
%TD*%
D11*
%TO.C,C85*%
X177000000Y-237120000D03*
X177000000Y-238080000D03*
%TD*%
D12*
%TO.C,C87*%
X181080000Y-233400000D03*
X180120000Y-233400000D03*
%TD*%
D15*
%TO.C,C118*%
X186039411Y-234139411D03*
X185360589Y-233460589D03*
%TD*%
D16*
%TO.C,C91*%
X178500000Y-229500000D03*
X177821178Y-230178822D03*
%TD*%
D12*
%TO.C,C89*%
X183980000Y-236100000D03*
X183020000Y-236100000D03*
%TD*%
D14*
%TO.C,C82*%
X181500000Y-228400000D03*
X182460000Y-228400000D03*
%TD*%
D12*
%TO.C,C90*%
X184800000Y-228400000D03*
X183840000Y-228400000D03*
%TD*%
D11*
%TO.C,C88*%
X182900000Y-232520000D03*
X182900000Y-233480000D03*
%TD*%
D17*
%TO.C,C84*%
X180160589Y-230339411D03*
X180839411Y-229660589D03*
%TD*%
D18*
%TO.C,C86*%
X184060589Y-233860589D03*
X184739411Y-234539411D03*
%TD*%
D14*
%TO.C,C119*%
X183420000Y-230400000D03*
X184380000Y-230400000D03*
%TD*%
D16*
%TO.C,C74*%
X178639411Y-230760589D03*
X177960589Y-231439411D03*
%TD*%
D11*
%TO.C,C72*%
X180100000Y-231420000D03*
X180100000Y-232380000D03*
%TD*%
D12*
%TO.C,C80*%
X185180000Y-232300000D03*
X184220000Y-232300000D03*
%TD*%
D11*
%TO.C,C93*%
X186700000Y-231220000D03*
X186700000Y-232180000D03*
%TD*%
M02*
