M48
; DRILL file {KiCad 7.0.2} date Fri Oct 13 18:39:27 2023
; FORMAT={-:-/ absolute / metric / decimal}
; #@! TF.CreationDate,2023-10-13T18:39:27+02:00
; #@! TF.GenerationSoftware,Kicad,Pcbnew,7.0.2
; #@! TF.FileFunction,MixedPlating,1,6
FMAT,2
METRIC
; #@! TA.AperFunction,Plated,PTH,ViaDrill
T1C0.150
; #@! TA.AperFunction,Plated,PTH,ViaDrill
T2C0.200
; #@! TA.AperFunction,Plated,PTH,ViaDrill
T3C0.300
; #@! TA.AperFunction,Plated,PTH,ComponentDrill
T4C0.500
; #@! TA.AperFunction,Plated,PTH,ComponentDrill
T5C0.600
; #@! TA.AperFunction,Plated,PTH,ComponentDrill
T6C0.800
; #@! TA.AperFunction,Plated,PTH,ComponentDrill
T7C0.950
; #@! TA.AperFunction,Plated,PTH,ComponentDrill
T8C1.000
; #@! TA.AperFunction,Plated,PTH,ComponentDrill
T9C1.100
; #@! TA.AperFunction,Plated,PTH,ComponentDrill
T10C2.300
; #@! TA.AperFunction,Plated,PTH,ComponentDrill
T11C3.200
; #@! TA.AperFunction,NonPlated,NPTH,ComponentDrill
T12C1.500
%
G90
G05
T1
X152.275Y-222.975
X152.275Y-224.575
X152.275Y-225.375
X152.275Y-226.975
X152.275Y-227.775
X152.275Y-229.375
X152.275Y-230.175
X152.275Y-231.775
X152.275Y-233.375
X152.275Y-234.175
X152.275Y-234.975
X152.275Y-235.775
X152.3Y-238.975
X155.5Y-238.3
X155.8Y-232.8
X156.2Y-235.3
X156.3Y-238.0
X159.5Y-241.8
X160.8Y-225.4
X161.2Y-241.5
X163.775Y-222.975
X163.775Y-229.375
X163.775Y-230.175
X163.775Y-231.775
X163.775Y-234.175
X163.775Y-234.975
X163.775Y-241.375
X163.775Y-242.175
X163.797Y-235.788
X163.8Y-224.6
X163.8Y-225.375
X163.8Y-226.975
X163.8Y-227.775
X164.1Y-245.1
X164.3Y-228.8
X164.5Y-244.8
X164.6Y-232.7
X164.725Y-237.375
X164.8Y-244.4
X165.1Y-241.4
X165.1Y-244.0
X165.3Y-229.4
X165.4Y-227.775
X165.4Y-242.5
X165.675Y-226.975
X166.1Y-220.7
X166.1Y-248.2
X166.1Y-248.7
X166.8Y-239.8
X166.8Y-246.0
X166.9Y-229.7
X166.9Y-240.3
X166.9Y-243.7
X167.0Y-243.3
X167.106Y-226.406
X167.2Y-226.0
X167.3Y-240.6
X167.5Y-244.5
X167.9Y-224.5
X167.9Y-225.4
X168.0Y-237.4
X168.0Y-241.3
X168.1Y-242.5
X168.5Y-242.9
X168.6Y-244.6
X168.9Y-224.1
X169.0Y-239.8
X169.1Y-232.6
X169.1Y-233.6
X169.1Y-234.9
X169.1Y-240.3
X169.5Y-232.2
X169.5Y-238.4
X169.5Y-251.0
X169.6Y-248.2
X169.8Y-238.8
X169.9Y-225.9
X169.9Y-233.0
X170.1Y-239.2
X170.4Y-235.5
X170.5Y-240.1
X170.9Y-226.2
X170.9Y-234.4
X170.9Y-248.2
X171.0Y-223.4
X171.1Y-240.1
X171.1Y-240.7
X171.1Y-242.6
X171.2Y-224.4
X171.4Y-234.9
X171.5Y-241.5
X171.9Y-223.1
X172.2Y-229.1
X172.2Y-235.7
X172.2Y-243.9
X172.3Y-241.4
X172.9Y-243.8
X173.1Y-225.4
X173.7Y-218.8
X173.7Y-243.9
X173.8Y-224.5
X173.901Y-236.398
X174.0Y-226.8
X174.122Y-226.309
X174.4Y-227.2
X174.5Y-225.9
X174.5Y-239.2
X174.6Y-234.0
X174.7Y-230.3
X174.7Y-232.5
X174.9Y-233.5
X174.9Y-248.2
X175.1Y-239.7
X175.4Y-235.4
X175.4Y-238.3
X175.5Y-233.7
X176.325Y-234.1
X176.4Y-233.225
X176.5Y-220.6
X176.6Y-244.5
X176.9Y-220.9
X176.9Y-223.7
X176.9Y-229.3
X177.1Y-230.3
X177.2Y-233.3
X177.2Y-235.7
X177.3Y-220.6
X177.4Y-229.3
X177.6Y-239.1
X177.7Y-223.8
X177.9Y-229.3
X177.9Y-239.5
X177.925Y-233.3
X177.925Y-234.1
X178.2Y-223.8
X178.3Y-240.0
X178.6Y-239.1
X178.7Y-240.5
X178.775Y-228.5
X178.8Y-230.1
X178.8Y-238.1
X179.0Y-226.6
X179.1Y-239.5
X179.1Y-240.9
X179.5Y-230.025
X179.5Y-238.1
X179.5Y-241.3
X179.525Y-225.525
X179.6Y-227.899
X179.6Y-228.525
X179.8Y-244.7
X179.9Y-241.7
X179.943Y-226.857
X180.2Y-242.1
X180.3Y-229.2
X180.4Y-237.325
X180.4Y-238.1
X180.5Y-236.5
X180.6Y-242.5
X180.8Y-225.4
X180.9Y-242.9
X181.0Y-226.5
X181.1Y-235.625
X181.1Y-243.3
X181.125Y-238.9
X181.175Y-236.5
X181.175Y-237.1
X181.3Y-227.704
X181.3Y-238.1
X181.3Y-239.3
X181.3Y-243.7
X181.4Y-226.4
X181.925Y-238.1
X182.1Y-226.3
X182.174Y-227.662
X182.2Y-223.0
X182.2Y-225.5
X182.4Y-243.3
X182.6Y-221.2
X182.7Y-223.0
X182.7Y-225.8
X182.7Y-238.925
X182.7Y-245.1
X182.725Y-238.1
X182.775Y-237.3
X183.0Y-243.9
X183.1Y-242.4
X183.2Y-226.7
X183.4Y-246.9
X183.5Y-243.1
X183.6Y-226.6
X183.6Y-242.7
X183.8Y-242.1
X184.0Y-244.9
X184.375Y-229.3
X184.375Y-237.3
X184.375Y-238.1
X184.4Y-221.7
X184.4Y-226.6
X184.5Y-239.0
X184.5Y-239.7
X184.674Y-227.7
X185.1Y-223.2
X185.1Y-229.325
X185.1Y-234.9
X185.1Y-238.125
X185.175Y-230.9
X185.2Y-225.8
X185.5Y-239.0
X185.9Y-223.2
X185.925Y-229.3
X185.975Y-234.9
X186.0Y-238.0
X186.0Y-239.0
X186.4Y-243.8
X186.4Y-245.9
X186.5Y-239.0
X186.7Y-234.925
X186.725Y-235.7
X186.9Y-243.8
X186.9Y-245.9
X187.0Y-239.0
X187.4Y-243.8
X187.4Y-245.9
X187.6Y-225.8
X187.8Y-239.7
X187.9Y-243.8
X187.9Y-245.9
X188.1Y-235.8
X188.4Y-234.3
X188.5Y-230.1
X188.9Y-243.8
X188.9Y-245.9
X189.0Y-238.6
X189.1Y-234.5
X189.1Y-238.1
X189.4Y-239.4
X189.4Y-243.8
X189.4Y-245.9
X189.59Y-230.99
X189.9Y-243.8
X189.9Y-245.9
X190.0Y-231.7
X190.1Y-236.3
X190.4Y-243.8
X190.4Y-245.9
X190.9Y-243.8
X190.9Y-245.9
X191.4Y-243.8
X191.4Y-245.9
X191.5Y-236.9
X191.9Y-243.8
X191.9Y-245.9
X192.1Y-236.9
X192.4Y-243.8
X192.4Y-245.9
X192.9Y-243.8
X192.9Y-246.2
X193.0Y-239.6
X193.4Y-243.8
X193.4Y-246.7
X193.9Y-243.8
X193.9Y-247.2
X194.0Y-228.1
X194.4Y-227.3
X194.4Y-234.8
X194.4Y-237.5
X194.4Y-239.4
X194.4Y-240.4
X194.4Y-247.7
X194.9Y-248.2
X195.4Y-248.7
X195.9Y-234.1
X195.9Y-249.2
X196.4Y-243.8
X196.4Y-249.8
X197.7Y-233.0
X197.9Y-245.0
X198.4Y-242.9
X198.4Y-245.0
X198.9Y-237.2
X198.9Y-238.8
X198.9Y-242.9
X198.9Y-245.2
X199.4Y-237.8
X199.4Y-239.3
X199.4Y-242.9
X199.4Y-245.7
X199.9Y-238.7
X199.9Y-240.0
X199.9Y-242.9
X199.9Y-246.2
X200.4Y-242.9
X200.4Y-246.6
T2
X148.95Y-223.475
X148.95Y-228.275
X148.95Y-232.275
X149.35Y-224.075
X149.35Y-228.875
X149.35Y-232.875
X150.75Y-220.375
X150.85Y-244.775
X151.45Y-219.975
X151.55Y-245.175
X152.05Y-226.175
X152.05Y-230.975
X161.85Y-222.175
X161.85Y-223.775
X161.85Y-232.575
X161.85Y-242.975
X161.9Y-228.6
X164.55Y-231.275
X164.6Y-225.8
X164.9Y-226.5
X164.95Y-230.675
X167.45Y-255.475
X167.45Y-256.675
X168.45Y-255.475
X168.45Y-256.675
X170.5Y-191.0
X170.5Y-194.4
X170.5Y-197.8
X170.5Y-201.2
X170.5Y-204.6
X170.7Y-230.5
X170.9Y-207.6
X172.0Y-189.1
X172.2Y-237.5
X172.5Y-234.075
X173.1Y-228.9
X173.8Y-237.5
X174.3Y-207.6
X174.6Y-197.4
X174.6Y-198.0
X174.6Y-198.6
X175.2Y-224.0
X175.4Y-189.1
X175.475Y-237.2
X175.525Y-236.5
X175.69Y-224.4
X176.1Y-197.4
X176.1Y-198.0
X176.1Y-198.6
X176.3Y-229.225
X176.325Y-238.1
X176.375Y-230.9
X176.397Y-237.322
X177.103Y-230.897
X177.7Y-207.6
X178.775Y-232.5
X178.784Y-229.3
X178.8Y-189.1
X178.8Y-231.625
X178.8Y-234.825
X178.809Y-235.616
X179.5Y-232.425
X179.5Y-234.025
X179.525Y-233.3
X179.525Y-234.9
X179.575Y-231.7
X179.6Y-230.925
X179.6Y-235.625
X179.8Y-224.1
X179.9Y-260.1
X180.3Y-234.025
X180.325Y-234.9
X180.4Y-230.925
X180.4Y-235.625
X181.0Y-190.3
X181.0Y-193.7
X181.0Y-197.1
X181.0Y-200.8
X181.0Y-204.2
X181.0Y-207.6
X181.125Y-230.1
X181.125Y-230.9
X181.125Y-234.9
X181.18Y-228.5
X181.4Y-261.6
X181.7Y-196.1
X181.7Y-198.8
X181.9Y-230.925
X181.925Y-234.9
X181.975Y-230.1
X182.3Y-194.8
X182.5Y-197.3
X182.7Y-235.625
X182.725Y-230.9
X182.775Y-230.1
X182.775Y-234.9
X182.85Y-255.875
X183.0Y-198.8
X183.35Y-255.875
X183.5Y-194.4
X183.5Y-235.625
X183.525Y-230.9
X183.525Y-231.7
X183.525Y-232.5
X183.575Y-234.1
X183.575Y-234.9
X183.6Y-233.225
X183.85Y-255.875
X184.2Y-198.8
X184.3Y-234.825
X184.325Y-230.9
X184.325Y-231.7
X184.35Y-255.875
X184.397Y-233.228
X184.4Y-195.3
X184.4Y-196.3
X184.6Y-193.9
X185.1Y-198.8
X185.12Y-228.5
X185.125Y-231.7
X185.8Y-194.3
X185.9Y-236.5
X185.95Y-255.875
X186.2Y-198.8
X186.7Y-230.88
X186.7Y-232.5
X186.7Y-234.1
X186.86Y-202.6
X187.2Y-194.4
X187.3Y-201.2
X187.46Y-202.6
X187.7Y-236.5
X187.859Y-200.483
X187.9Y-198.6
X188.1Y-193.7
X188.35Y-255.875
X188.4Y-194.9
X189.0Y-198.4
X189.137Y-191.337
X189.2Y-195.6
X189.5Y-201.6
X189.938Y-190.637
X190.3Y-230.0
X190.8Y-197.8
X190.8Y-201.2
X190.945Y-200.279
X191.4Y-197.2
X191.474Y-195.271
X191.475Y-197.775
X191.5Y-198.4
X191.5Y-201.6
X192.1Y-197.8
X192.237Y-193.637
X192.4Y-194.8
X192.6Y-201.6
X192.7Y-199.7
X192.8Y-190.2
X192.8Y-194.1
X192.938Y-192.938
X200.4Y-258.8
X200.9Y-258.5
X201.4Y-258.8
X201.85Y-255.875
X201.9Y-258.5
X202.35Y-255.875
X202.6Y-259.0
X204.85Y-255.875
X207.55Y-255.9
X212.6Y-239.9
X213.1Y-241.3
X214.304Y-244.196
X215.1Y-245.75
X215.6Y-241.3
X217.9Y-240.9
X218.0Y-244.9
X218.0Y-245.7
X218.0Y-246.5
X218.0Y-247.3
X220.0Y-253.1
X220.2Y-244.3
X221.1Y-253.1
X221.8Y-226.1
X221.9Y-240.3
X222.4Y-226.5
X222.8Y-228.5
X223.0Y-238.1
X223.017Y-233.399
X223.3Y-248.5
X223.4Y-226.5
X223.4Y-228.5
X223.4Y-234.0
X223.4Y-237.3
X224.0Y-248.9
X224.1Y-226.9
X226.1Y-231.3
X226.1Y-236.1
X229.1Y-239.6
X229.6Y-223.6
X230.5Y-223.6
X231.2Y-211.2
X231.3Y-223.6
X231.3Y-237.4
X231.9Y-210.6
X231.9Y-250.2
X231.9Y-251.4
X231.9Y-252.5
X231.9Y-253.8
X232.5Y-209.9
X232.7Y-250.8
X232.7Y-251.9
X232.7Y-253.1
X232.9Y-249.5
X233.1Y-216.4
X235.3Y-209.9
X235.4Y-215.7
X235.4Y-238.5
X235.9Y-227.3
X235.9Y-228.9
X235.9Y-233.7
X235.9Y-237.7
X235.9Y-248.1
X236.1Y-250.2
X237.1Y-215.0
X237.5Y-250.8
X238.1Y-240.1
X238.1Y-241.2
X238.1Y-248.7
X238.5Y-214.3
X238.6Y-230.9
X238.6Y-236.5
X238.9Y-251.4
X239.0Y-231.7
X239.0Y-235.7
X239.8Y-246.9
X239.8Y-247.8
X239.9Y-244.8
X239.9Y-245.9
X240.0Y-251.9
X240.1Y-250.7
X240.65Y-240.3
X240.8Y-250.4
X241.0Y-245.9
X241.15Y-245.1
X241.653Y-247.647
X242.0Y-249.5
X242.1Y-238.8
X242.8Y-237.2
X243.3Y-245.3
X243.4Y-248.3
X243.7Y-236.5
X244.8Y-227.3
X244.8Y-231.7
X245.0Y-248.9
X245.3Y-213.2
X245.6Y-227.4
X245.6Y-231.7
X246.1Y-214.3
X247.2Y-214.3
X247.7Y-250.4
X247.75Y-240.3
X248.2Y-250.9
X248.45Y-240.7
X248.6Y-213.8
X248.6Y-225.3
X248.8Y-224.2
X249.6Y-252.5
X249.7Y-238.2
X250.2Y-246.6
X250.3Y-242.6
X250.3Y-244.4
X251.1Y-244.5
X251.2Y-238.2
X251.7Y-221.3
X251.777Y-240.177
X252.0Y-228.1
X252.1Y-229.7
X252.1Y-230.4
X252.3Y-224.0
X252.3Y-253.1
X253.0Y-242.4
X253.3Y-224.0
X253.3Y-240.8
X254.0Y-224.7
X254.0Y-253.8
X254.4Y-231.2
X254.4Y-235.2
X254.5Y-224.0
X254.523Y-242.877
X255.0Y-236.3
X255.9Y-239.0
X255.9Y-239.8
X257.4Y-242.0
X257.9Y-222.4
X257.9Y-244.8
X257.9Y-245.8
X258.1Y-231.9
X258.4Y-237.6
X258.6Y-217.4
X258.6Y-243.4
X258.7Y-242.3
X258.7Y-249.3
X258.947Y-244.447
X259.0Y-231.9
X259.0Y-237.6
X259.199Y-243.38
X259.2Y-245.4
X259.6Y-217.6
X259.6Y-224.1
X259.658Y-247.213
X260.6Y-253.0
X261.1Y-227.6
X261.4Y-226.9
X261.649Y-237.0
X261.649Y-244.5
X261.8Y-218.1
X261.8Y-251.2
X262.0Y-225.7
X262.0Y-238.0
X262.0Y-247.2
X262.2Y-236.1
X262.3Y-233.6
X262.4Y-231.7
X262.6Y-234.2
X262.6Y-251.7
X262.7Y-246.6
X262.8Y-235.0
X262.953Y-231.1
X263.188Y-248.039
X263.2Y-235.5
X263.3Y-250.68
X263.4Y-218.8
X263.9Y-241.5
X264.0Y-224.0
X264.063Y-251.044
X264.2Y-279.7
X264.7Y-229.1
X264.7Y-253.0
X264.9Y-219.5
X265.9Y-219.5
X266.1Y-223.4
X266.5Y-228.724
X266.6Y-215.0
X266.7Y-244.3
X266.9Y-219.6
X267.3Y-255.0
X268.05Y-243.75
X268.4Y-215.9
X268.5Y-221.2
X268.5Y-229.0
X269.187Y-224.8
X269.187Y-225.8
X269.2Y-247.4
X269.4Y-218.5
X269.6Y-223.1
X269.688Y-228.461
X269.688Y-248.039
X270.2Y-218.0
X270.2Y-222.4
X270.2Y-251.7
X270.2Y-250.717
X270.8Y-218.6
X270.8Y-222.2
X271.349Y-218.3
X271.468Y-222.07
X271.9Y-220.1
X272.9Y-222.6
X273.0Y-234.4
X273.1Y-221.3
X273.9Y-223.4
X274.137Y-225.764
X274.3Y-224.0
X274.688Y-228.461
X274.688Y-248.039
X274.8Y-225.5
X274.8Y-251.7
X275.188Y-250.714
X275.7Y-225.3
X276.3Y-225.4
X276.6Y-226.0
X277.9Y-220.4
X278.2Y-235.4
X278.3Y-238.0
X278.4Y-237.0
X279.12Y-253.2
X279.2Y-235.3
X280.3Y-247.2
X280.4Y-225.2
X280.7Y-250.1
X280.8Y-234.9
X281.2Y-230.0
X281.2Y-236.5
X281.2Y-242.0
X281.5Y-218.7
X281.5Y-249.5
X281.52Y-253.2
X281.9Y-248.7
X282.2Y-228.5
X282.3Y-218.7
X283.1Y-218.7
X283.9Y-229.8
X283.9Y-241.4
X283.92Y-236.6
X284.3Y-229.1
X284.3Y-230.8
X284.4Y-241.4
X284.42Y-236.6
X285.3Y-242.5
X285.5Y-238.7
X285.5Y-239.3
X285.5Y-240.4
X285.8Y-237.2
X285.8Y-241.0
X286.1Y-235.2
X287.4Y-236.639
X287.8Y-243.2
X288.9Y-242.1
X288.9Y-242.8
X289.8Y-237.9
X289.8Y-246.3
X291.2Y-237.9
X291.2Y-252.7
X291.75Y-244.8
X291.75Y-250.75
X291.95Y-250.15
X292.05Y-249.45
X293.4Y-245.4
X294.8Y-251.275
X295.15Y-242.55
X295.3Y-240.3
X296.6Y-253.1
X297.2Y-199.5
X298.3Y-199.5
X298.7Y-193.2
X299.3Y-197.9
X299.3Y-199.6
X299.6Y-219.5
X300.1Y-194.2
X300.1Y-196.0
X300.2Y-251.2
X301.5Y-199.3
X302.0Y-253.0
X302.4Y-251.0
X302.7Y-200.8
X302.7Y-202.7
X303.387Y-204.304
X304.0Y-252.6
X304.8Y-205.9
X304.9Y-219.1
X304.9Y-251.1
X305.5Y-195.1
X305.5Y-211.9
X305.6Y-206.2
X306.1Y-194.2
X306.2Y-211.5
X306.5Y-205.9
X306.6Y-252.8
X306.7Y-210.9
X307.4Y-251.0
X307.5Y-194.2
X307.6Y-210.6
X308.297Y-210.097
X308.9Y-214.2
X309.003Y-210.803
X309.1Y-252.7
X309.2Y-251.0
X309.3Y-225.7
X310.2Y-243.7
X310.5Y-197.5
X310.7Y-252.5
X311.4Y-197.2
X311.4Y-211.9
X311.4Y-246.0
X311.4Y-247.3
X311.6Y-222.4
X311.9Y-212.4
X312.2Y-197.5
X312.2Y-213.0
X312.6Y-206.2
X313.1Y-213.2
X313.1Y-247.8
X313.3Y-197.4
X313.3Y-206.5
X313.6Y-251.8
X314.0Y-206.0
X314.2Y-207.2
X314.35Y-207.95
X314.4Y-243.7
X314.5Y-244.8
X314.5Y-250.9
X314.9Y-211.4
X315.0Y-204.7
X315.1Y-222.4
X316.8Y-251.7
X317.0Y-210.1
X317.0Y-215.6
X317.09Y-244.972
X317.2Y-250.2
X317.8Y-222.4
X318.1Y-243.8
X318.8Y-250.5
X318.8Y-252.3
X319.2Y-246.2
X319.7Y-193.8
X319.7Y-245.5
X319.7Y-247.0
X319.8Y-249.2
X320.058Y-246.22
X320.3Y-243.2
X320.4Y-241.4
X320.4Y-245.5
X320.4Y-247.0
X321.0Y-246.2
X321.7Y-267.5
X321.9Y-197.5
X322.0Y-243.4
X322.0Y-270.5
X322.1Y-224.3
X322.1Y-259.8
X322.1Y-262.3
X322.1Y-264.8
X322.1Y-269.9
X322.1Y-277.2
X322.1Y-280.4
X322.9Y-199.3
X323.1Y-268.8
X323.1Y-275.5
X323.2Y-202.6
X323.3Y-243.6
X323.6Y-242.1
X323.8Y-201.9
X324.0Y-204.0
X324.1Y-200.7
X324.1Y-202.7
X324.2Y-268.3
X324.2Y-269.3
X324.2Y-275.0
X324.2Y-276.0
X324.604Y-201.419
X325.3Y-268.8
X325.3Y-275.5
X326.062Y-205.975
X326.962Y-206.275
X327.2Y-224.5
X327.3Y-227.6
X327.762Y-205.975
X328.8Y-227.4
X329.2Y-229.0
X329.4Y-188.5
X329.6Y-242.3
X329.8Y-225.8
X330.4Y-214.3
X330.6Y-205.5
X331.4Y-206.2
X331.4Y-208.3
X331.863Y-197.475
X331.9Y-245.2
X332.1Y-218.0
X332.2Y-243.6
X332.2Y-246.9
X332.4Y-209.5
X332.662Y-197.175
X333.2Y-210.0
X333.2Y-212.7
X333.462Y-197.475
X333.7Y-210.5
X333.7Y-213.1
X333.8Y-207.0
X333.9Y-206.4
X334.5Y-197.4
X335.5Y-200.7
X335.5Y-237.1
X336.1Y-200.1
X336.7Y-200.7
X337.2Y-222.9
X337.25Y-202.025
X337.8Y-243.6
X338.675Y-201.375
X338.7Y-203.2
X339.4Y-207.5
X344.1Y-256.7
X345.3Y-283.1
X345.4Y-255.7
X345.4Y-257.7
X346.6Y-282.2
X346.6Y-284.1
X346.7Y-256.7
X347.0Y-198.8
X347.9Y-283.1
T3
X71.5Y-234.1
X71.5Y-235.1
X71.5Y-236.1
X71.8Y-233.2
X71.8Y-236.9
X72.6Y-232.9
X72.6Y-237.4
X73.0Y-227.1
X73.0Y-228.1
X73.0Y-229.1
X73.2Y-243.6
X73.2Y-244.6
X73.2Y-245.6
X73.4Y-237.0
X73.5Y-233.3
X73.8Y-234.2
X73.8Y-235.2
X73.8Y-236.2
X74.0Y-227.1
X74.0Y-228.1
X74.0Y-229.1
X74.2Y-243.6
X74.2Y-244.6
X74.2Y-245.6
X75.0Y-227.1
X75.0Y-228.1
X75.0Y-229.1
X75.2Y-243.6
X75.2Y-244.6
X75.2Y-245.6
X76.0Y-227.1
X76.0Y-228.1
X76.0Y-229.1
X76.2Y-243.6
X76.2Y-244.6
X76.2Y-245.6
X77.0Y-227.1
X77.0Y-228.1
X77.0Y-229.1
X77.2Y-243.6
X77.2Y-244.6
X77.2Y-245.6
X86.3Y-239.1
X86.3Y-240.0
X86.5Y-240.9
X86.5Y-242.8
X86.5Y-243.8
X86.5Y-244.8
X87.0Y-238.5
X87.5Y-240.9
X87.5Y-242.8
X87.5Y-243.8
X87.5Y-244.8
X87.9Y-238.5
X88.5Y-240.8
X88.5Y-242.8
X88.5Y-243.8
X88.5Y-244.8
X88.7Y-238.9
X88.7Y-239.9
X92.0Y-263.6
X92.0Y-265.2
X92.8Y-243.4
X93.7Y-243.4
X94.5Y-243.1
X97.1Y-247.8
X97.1Y-249.3
X98.8Y-247.2
X99.3Y-241.6
X99.3Y-242.6
X100.7Y-238.0
X100.8Y-237.1
X100.8Y-238.9
X102.4Y-266.8
X103.1Y-262.0
X104.2Y-261.9
X105.1Y-261.8
X105.2Y-260.9
X106.79Y-253.8
X111.8Y-264.4
X117.4Y-241.1
X117.69Y-237.5
X118.775Y-263.425
X118.8Y-264.4
X118.8Y-265.4
X118.8Y-266.4
X119.7Y-237.6
X119.7Y-239.4
X119.8Y-263.4
X119.8Y-264.4
X119.8Y-265.4
X119.8Y-266.4
X120.8Y-263.4
X120.8Y-264.4
X120.8Y-265.4
X120.8Y-266.4
X121.5Y-239.4
X121.8Y-263.4
X121.8Y-264.4
X121.8Y-265.4
X121.8Y-266.4
X122.0Y-257.5
X123.0Y-236.3
X171.1Y-232.375
X171.1Y-233.4
X173.6Y-230.475
X173.9Y-231.275
X179.0Y-213.2
X180.0Y-212.3
X180.0Y-213.2
X180.0Y-214.1
X181.0Y-213.2
X201.5Y-213.1
X202.5Y-212.1
X202.5Y-213.1
X202.5Y-214.1
X203.5Y-213.1
X205.5Y-266.6
X205.5Y-271.2
X206.4Y-267.5
X206.4Y-270.3
X210.3Y-186.8
X213.0Y-186.8
X218.6Y-266.6
X218.6Y-271.2
X219.6Y-267.5
X219.6Y-270.3
X224.1Y-194.9
X225.0Y-194.5
X232.9Y-266.6
X243.25Y-242.9
X244.25Y-241.8
X244.25Y-242.9
X244.25Y-243.9
X245.25Y-242.9
X253.7Y-205.6
X254.4Y-204.7
X255.3Y-245.4
X261.4Y-196.9
X261.4Y-198.3
X261.4Y-199.7
X261.6Y-195.8
X261.8Y-280.7
X261.8Y-282.5
X262.3Y-200.5
X262.8Y-195.6
X264.8Y-197.1
X264.8Y-198.3
X264.8Y-199.4
X264.9Y-196.0
X265.0Y-201.8
X265.0Y-202.7
X265.0Y-203.6
X265.1Y-200.4
X265.9Y-195.7
X266.1Y-200.6
X266.2Y-201.8
X266.2Y-202.7
X266.2Y-203.6
X266.9Y-195.8
X267.1Y-200.3
X267.3Y-196.8
X267.3Y-197.9
X267.3Y-199.1
X267.4Y-201.8
X267.4Y-202.7
X267.4Y-203.6
X270.3Y-204.1
X272.2Y-203.9
X273.7Y-203.9
X278.5Y-196.7
X278.5Y-197.9
X278.5Y-199.1
X278.6Y-200.2
X279.2Y-195.8
X279.8Y-200.6
X280.2Y-195.8
X282.0Y-196.9
X282.0Y-198.2
X282.0Y-199.4
X282.2Y-200.5
X282.2Y-201.8
X282.2Y-202.7
X282.2Y-203.6
X282.5Y-195.9
X283.2Y-200.7
X283.4Y-201.8
X283.4Y-202.7
X283.4Y-203.6
X283.5Y-195.8
X284.2Y-200.5
X284.4Y-196.4
X284.5Y-197.5
X284.5Y-198.6
X284.5Y-199.6
X284.6Y-201.8
X284.6Y-202.7
X284.6Y-203.6
X285.8Y-217.1
X286.8Y-216.1
X286.8Y-217.1
X286.8Y-218.1
X287.4Y-192.1
X287.8Y-217.1
X288.7Y-190.8
X291.0Y-217.1
X292.0Y-216.2
X292.0Y-217.1
X292.0Y-218.0
X293.0Y-217.1
X294.4Y-188.7
X298.7Y-213.75
X300.1Y-211.85
X300.1Y-215.65
X301.5Y-213.75
X307.175Y-222.8
X307.863Y-200.075
X307.863Y-201.175
X307.863Y-202.275
X307.863Y-203.375
X308.075Y-221.9
X308.075Y-223.8
X309.075Y-222.8
X309.162Y-200.075
X309.162Y-201.175
X309.162Y-202.275
X309.162Y-203.375
X312.5Y-191.5
X319.8Y-214.3
X321.2Y-212.4
X321.2Y-216.3
X322.7Y-214.3
X329.162Y-200.075
X329.162Y-201.175
X329.162Y-202.275
X329.162Y-203.375
X330.462Y-200.075
X330.462Y-201.175
X330.462Y-202.275
X330.462Y-203.375
X341.8Y-243.4
X341.89Y-201.41
X341.9Y-222.7
X341.9Y-245.2
X342.5Y-224.6
X342.79Y-200.51
X342.79Y-202.31
X342.8Y-245.2
X342.9Y-243.5
X343.0Y-218.7
X343.0Y-222.9
X343.0Y-230.8
X343.0Y-239.8
X343.0Y-251.4
X343.2Y-219.9
X343.2Y-231.8
X343.3Y-223.9
X343.3Y-238.5
X343.3Y-244.4
X343.3Y-252.6
X343.4Y-229.6
X343.5Y-217.5
X343.69Y-201.41
X343.8Y-241.1
X343.8Y-249.9
X344.0Y-232.7
X344.3Y-237.6
X344.4Y-220.9
X344.4Y-228.9
X344.5Y-253.6
X344.6Y-216.8
X344.9Y-249.4
X345.1Y-241.6
X345.3Y-233.0
X345.7Y-228.8
X345.7Y-237.4
X346.1Y-216.9
X346.1Y-253.5
X346.3Y-220.7
X346.4Y-241.3
X346.6Y-249.9
X346.7Y-232.4
X346.9Y-229.6
X347.0Y-217.8
X347.0Y-252.7
X347.1Y-238.5
X347.2Y-219.5
X347.3Y-230.9
X347.3Y-240.1
X347.3Y-251.3
T4
X77.6Y-192.0
X77.6Y-276.0
X78.303Y-190.303
X78.303Y-193.697
X78.303Y-274.303
X78.303Y-277.697
X80.0Y-189.6
X80.0Y-194.4
X80.0Y-273.6
X80.0Y-278.4
X81.697Y-190.303
X81.697Y-193.697
X81.697Y-274.303
X81.697Y-277.697
X82.4Y-192.0
X82.4Y-276.0
X216.6Y-260.0
X217.303Y-258.303
X217.303Y-261.697
X219.0Y-257.6
X219.0Y-262.4
X220.697Y-258.303
X220.697Y-261.697
X221.4Y-260.0
X260.55Y-281.6
X261.8Y-281.6
X263.05Y-281.6
X339.8Y-192.0
X340.503Y-190.303
X340.503Y-193.697
X342.2Y-189.6
X342.2Y-194.4
X343.897Y-190.303
X343.897Y-193.697
X344.6Y-192.0
T5
X213.375Y-193.4
X213.375Y-197.0
X297.8Y-185.225
X301.4Y-185.225
X305.0Y-185.225
X308.6Y-185.225
X318.4Y-185.625
X322.0Y-185.625
X325.6Y-185.625
X329.2Y-185.625
T6
X308.12Y-217.76
X308.12Y-222.84
X313.2Y-220.3
X342.75Y-201.43
X345.29Y-206.51
X347.83Y-201.43
T7
X340.3Y-244.3
X340.3Y-246.8
X340.312Y-223.65
X340.312Y-226.15
X342.3Y-244.3
X342.3Y-246.8
X342.312Y-223.65
X342.312Y-226.15
T8
X239.9Y-195.2
X247.5Y-195.2
T9
X87.5Y-230.5
X87.5Y-235.1
X87.5Y-239.7
T10
X345.16Y-239.55
X345.16Y-251.55
X345.172Y-218.9
X345.172Y-230.9
T11
X80.0Y-192.0
X80.0Y-276.0
X219.0Y-260.0
X342.2Y-192.0
T12
X207.375Y-193.4
X207.375Y-197.0
X297.8Y-191.225
X301.4Y-191.225
X305.0Y-191.225
X308.6Y-191.225
X318.4Y-191.625
X322.0Y-191.625
X325.6Y-191.625
X329.2Y-191.625
X331.4Y-257.8
X331.4Y-282.0
T8
G00X72.65Y-234.05
M15
G01X72.65Y-236.25
M16
G05
G00X77.15Y-239.95
M15
G01X74.95Y-239.95
M16
G05
G00X78.95Y-233.85
M15
G01X78.95Y-236.45
M16
G05
T0
M30
